# xmcd CD database file
#
# Track frame offsets:
#	150
#	12268
#	29578
#	44626
#	59261
#	77959
#	95882
#	119554
#	137114
#	154312
#	170047
#	188295
#	206743
#	228285
#	248925
#	264210
#	281895
#	296618
#	309916
#	324589
#	340624
#
# Disc length: 4679 seconds
#
# Revision: 0
# Processed by: cddbd v1.5.2PL0 Copyright (c) Steve Scherf et al.
# Submitted via: CDex 1.70beta2
#
DISCID=3a124515
DTITLE=Steve Berry - The Amber Room Disc 2
DYEAR=2003
DGENRE=Audio Book
TTITLE0=The Amber Room Disc 2-01
TTITLE1=The Amber Room Disc 2-02
TTITLE2=The Amber Room Disc 2-03
TTITLE3=The Amber Room Disc 2-04
TTITLE4=The Amber Room Disc 2-05
TTITLE5=The Amber Room Disc 2-06
TTITLE6=The Amber Room Disc 2-07
TTITLE7=The Amber Room Disc 2-08
TTITLE8=The Amber Room Disc 2-09
TTITLE9=The Amber Room Disc 2-10
TTITLE10=The Amber Room Disc 2-11
TTITLE11=The Amber Room Disc 2-12
TTITLE12=The Amber Room Disc 2-13
TTITLE13=The Amber Room Disc 2-14
TTITLE14=The Amber Room Disc 2-15
TTITLE15=The Amber Room Disc 2-16
TTITLE16=The Amber Room Disc 2-17
TTITLE17=The Amber Room Disc 2-18
TTITLE18=The Amber Room Disc 2-19
TTITLE19=The Amber Room Disc 2-20
TTITLE20=The Amber Room Disc 2-21
EXTD=YEAR: 2003
EXTT0=
EXTT1=
EXTT2=
EXTT3=
EXTT4=
EXTT5=
EXTT6=
EXTT7=
EXTT8=
EXTT9=
EXTT10=
EXTT11=
EXTT12=
EXTT13=
EXTT14=
EXTT15=
EXTT16=
EXTT17=
EXTT18=
EXTT19=
EXTT20=
PLAYORDER=
